<svg xmlns="http://www.w3.org/2000/svg" width="40" height="40" viewBox="0 0 40 40">
    <defs>
        <linearGradient id="prefix__a" x1="22.978%" x2="69.273%" y1="75.407%" y2="1.059%">
            <stop offset="0%" stop-color="#FBB041"/>
            <stop offset="92%" stop-color="#FFDA15"/>
            <stop offset="100%" stop-color="#FFDE11"/>
        </linearGradient>
        <linearGradient id="prefix__b" x1=".02%" x2="99.996%" y1="49.943%" y2="49.943%">
            <stop offset="0%" stop-color="#D48C3D"/>
            <stop offset="18%" stop-color="#D79737"/>
            <stop offset="69%" stop-color="#DDB02A"/>
            <stop offset="100%" stop-color="#DFBA25"/>
        </linearGradient>
        <linearGradient id="prefix__c" x1="0%" x2="99.972%" y1="50.009%" y2="50.009%">
            <stop offset="0%" stop-color="#73784B"/>
            <stop offset="8%" stop-color="#777B4A"/>
            <stop offset="100%" stop-color="#A3993F"/>
        </linearGradient>
        <linearGradient id="prefix__d" x1="-.019%" x2="100.002%" y1="50.002%" y2="50.002%">
            <stop offset="0%" stop-color="#3DB54A"/>
            <stop offset="4%" stop-color="#41B64A"/>
            <stop offset="46%" stop-color="#6BBF45"/>
            <stop offset="80%" stop-color="#84C442"/>
            <stop offset="100%" stop-color="#8EC641"/>
        </linearGradient>
        <linearGradient id="prefix__e" x1="-.015%" x2="99.999%" y1="49.963%" y2="49.963%">
            <stop offset="0%" stop-color="#673090"/>
            <stop offset="25%" stop-color="#8C2B80"/>
            <stop offset="58%" stop-color="#B6246D"/>
            <stop offset="84%" stop-color="#CF2061"/>
            <stop offset="100%" stop-color="#D91F5D"/>
        </linearGradient>
        <linearGradient id="prefix__f" x1="0%" x2="99.956%" y1="50.005%" y2="50.005%">
            <stop offset="0%" stop-color="#EC76AE"/>
            <stop offset="9%" stop-color="#EB6CA6"/>
            <stop offset="49%" stop-color="#E64284"/>
            <stop offset="81%" stop-color="#E3296F"/>
            <stop offset="100%" stop-color="#E21F67"/>
        </linearGradient>
        <linearGradient id="prefix__g" x1="-.001%" x2="99.995%" y1="49.99%" y2="49.99%">
            <stop offset="0%" stop-color="#29AAE1"/>
            <stop offset="33%" stop-color="#2973AC"/>
            <stop offset="63%" stop-color="#284883"/>
            <stop offset="86%" stop-color="#282F6A"/>
            <stop offset="100%" stop-color="#282561"/>
        </linearGradient>
        <linearGradient id="prefix__h" x1=".029%" x2="99.999%" y1="49.965%" y2="49.965%">
            <stop offset="0%" stop-color="#29AAE1"/>
            <stop offset="23%" stop-color="#2AAEC1"/>
            <stop offset="57%" stop-color="#2CB297"/>
            <stop offset="84%" stop-color="#2DB57E"/>
            <stop offset="100%" stop-color="#2DB674"/>
        </linearGradient>
    </defs>
    <g fill="none" fill-rule="evenodd">
        <path fill="url(#prefix__a)" fill-rule="nonzero" d="M28.107 3.526c0 4.099-3.103 7.762-5.593 10.042h-.01c-.944.356-1.749 1.02-2.293 1.892-.043.035-.087.07-.125.096-.745-1.264-2.02-2.096-3.446-2.25-.217-.028-.436-.041-.654-.042h-.19c-2.337-2.131-4.94-5.449-4.985-9.637-.006-.869.306-1.708.874-2.35C12.347.492 13.298.029 14.307 0c2.135 0 5.192 2.155 5.192 2.155s2.578-2.08 5.16-2.08c1.059-.01 2.067.465 2.754 1.296.47.612.715 1.375.694 2.155z" style="mix-blend-mode:darken"/>
        <path fill="url(#prefix__b)" fill-rule="nonzero" d="M17.26 12.948c-.218-.026-.437-.04-.656-.04h-.191c-1.528.083-3.537 1.157-4.354 3.124-.227.55-.35 1.139-.363 1.735-3.055.099-6.875-.453-9.607-3.16-.545-.545-.89-1.262-.976-2.03-.145-1.094.206-2.195.955-2.997 1.527-1.532 5.17-2.235 5.17-2.235s.408-3.294 2.239-5.143c.737-.754 1.76-1.15 2.807-1.084.77.078 1.486.433 2.017 1 2.78 2.797 3.133 7.467 2.96 10.83z" style="mix-blend-mode:multiply"/>
        <path fill="url(#prefix__c)" fill-rule="nonzero" d="M12.973 22.78c-.02.03-.042.06-.065.087-1.9 2.582-5.225 5.977-9.562 6.022-.769.008-1.514-.287-2.097-.83C.487 27.378.032 26.375 0 25.305c0-2.194 1.982-5.344 1.982-5.344S.074 17.312.074 14.66c-.001-.961.336-1.887.942-2.59.588-.64 1.394-.986 2.227-.958 3.155 0 6.03 2.234 8.108 4.465-.214.557-.33 1.154-.342 1.758v.164c-.005 2.101.733 3.752 1.964 5.28z" style="mix-blend-mode:multiply"/>
        <path fill="url(#prefix__d)" fill-rule="nonzero" d="M14.215 38.963c-.619.652-1.457 1.024-2.335 1.034-.95.038-1.873-.326-2.564-1.009-1.5-1.57-2.17-5.317-2.17-5.317s-3.203-.418-5-2.3c-.699-.722-1.083-1.711-1.064-2.737.039-.848.391-1.646.982-2.227 2.905-3.035 7.86-3.255 11.153-2.992l.157.016c.79.91 1.645 1.756 2.558 2.528.437.38.835.76 1.204 1.14.01.048.017.098.02.148.361 3.299.237 8.313-2.941 11.716z" style="mix-blend-mode:multiply"/>
        <path fill="url(#prefix__e)" fill-rule="nonzero" d="M38.919 12.118c.01.937-.355 1.838-1.014 2.497-2.422 2.397-5.683 3.1-8.515 3.163-.004-.944-.287-1.866-.814-2.646-1.02-1.509-2.778-2.296-4.088-2.296-.59-.005-1.175.094-1.73.294h-.01c-.191-3.38.12-8.16 2.948-11.016.527-.557 1.23-.908 1.986-.994 1.058-.075 2.094.322 2.838 1.084 1.835 1.85 2.236 5.147 2.236 5.147s3.66.698 5.177 2.232c.64.685.993 1.593.986 2.535z" style="mix-blend-mode:multiply"/>
        <path fill="url(#prefix__f)" fill-rule="nonzero" d="M27.027 23.531c2.046 2.456 5.312 5.307 9.473 5.358.835.006 1.643-.314 2.26-.896.76-.678 1.21-1.655 1.24-2.693 0-2.193-2.072-5.336-2.072-5.336s1.991-2.654 1.991-5.303c.005-.998-.375-1.957-1.055-2.663-.609-.597-1.423-.915-2.26-.885-3.037 0-5.827 1.894-7.948 3.934.52.79.8 1.722.803 2.677.002.027.002.054 0 .08 0 2.12-.782 3.76-2.072 5.307l-.36.42z" style="mix-blend-mode:multiply"/>
        <path fill="url(#prefix__g)" fill-rule="nonzero" d="M26.495 23.364c3.25-.163 7.676.24 10.356 3.045.499.498.831 1.151.948 1.862.188 1.204-.337 2.371-1.029 3.096-1.797 1.882-5 2.3-5 2.3s-.679 3.76-2.173 5.32c-.72.711-1.692 1.076-2.68 1.004-.835-.04-1.624-.41-2.21-1.034-2.898-3.096-3.26-7.53-3.027-10.784.187-.214.386-.437.598-.661.504-.54 1.035-1.052 1.59-1.535.795-.681 1.55-1.413 2.261-2.19l.366-.423z" style="mix-blend-mode:multiply"/>
        <path fill="url(#prefix__h)" fill-rule="nonzero" d="M28.108 36.551c.007.809-.291 1.592-.838 2.2-.661.765-1.624 1.219-2.649 1.249-2.139 0-5.198-2.042-5.198-2.042s-2.576 1.975-5.155 1.975c-1.026.01-2.008-.41-2.696-1.154-.511-.586-.782-1.336-.76-2.105 0-4.158 3.553-7.841 6.103-9.95.023-.02.047-.04.072-.057 1.116 1.044 2.102 2.212 2.938 3.482.596-.914 1.276-1.773 2.033-2.565.19-.203.391-.414.606-.626 2.466 1.983 5.5 5.309 5.544 9.593z" style="mix-blend-mode:multiply"/>
        <path fill="#F9ED32" fill-rule="nonzero" d="M22.707 13.334h-.009s.006-.004.01 0z"/>
        <path d="M27.213 23.127c-.113.136-.234.276-.372.413"/>
    </g>
</svg>
